<svg width="94" height="25" viewBox="0 0 94 25" fill="none" xmlns="http://www.w3.org/2000/svg">
<g clip-path="url(#clip0_4101_112)">
<path d="M1.64893 1.66675C4.59029 1.66675 7.41119 2.83725 9.49104 4.92075C11.5709 7.00425 12.7394 9.83008 12.7394 12.7766V23.3334C9.79799 23.3334 6.9771 22.1629 4.89724 20.0794C2.81738 17.9959 1.64893 15.1701 1.64893 12.2236V1.66675Z" fill="#780096"/>
<path d="M13.708 14.3508V8.74489C13.708 7.81506 13.8909 6.89434 14.2462 6.03533C14.6015 5.17633 15.1223 4.39587 15.7789 3.73855C16.4354 3.08124 17.2147 2.55994 18.0724 2.20446C18.9301 1.84897 19.8493 1.66625 20.7775 1.66675V7.27453C20.7775 8.20427 20.5946 9.1249 20.2393 9.9838C19.884 10.8427 19.3631 11.623 18.7066 12.2802C18.05 12.9374 17.2707 13.4585 16.413 13.8138C15.5553 14.169 14.6361 14.3515 13.708 14.3508Z" fill="#780096"/>
<path d="M13.708 15.4456H21.8101C23.8969 15.4456 25.8983 16.276 27.3739 17.7542C28.8495 19.2324 29.6785 21.2373 29.6785 23.3278H21.5764C19.4896 23.3278 17.4882 22.4973 16.0126 21.0191C14.537 19.5409 13.708 17.5361 13.708 15.4456Z" fill="#780096"/>
</g>
<path d="M53.8022 23.3333H49.2671L44.3326 15.3125L42.6448 16.5365V23.3333H38.6509V4.29688H42.6448V13.0078C42.9111 12.6345 43.1731 12.2613 43.4308 11.888C43.6884 11.5148 43.9504 11.1415 44.2167 10.7682L49.3186 4.29688H53.7507L47.1799 12.7214L53.8022 23.3333Z" fill="#780096"/>
<path d="M68.9535 16.0286C68.9535 17.2439 68.7903 18.3203 68.4639 19.2578C68.1461 20.1953 67.678 20.9896 67.0596 21.6406C66.4498 22.283 65.7111 22.7691 64.8436 23.099C63.9847 23.4288 63.0141 23.5938 61.9319 23.5938C60.9183 23.5938 59.9864 23.4288 59.1361 23.099C58.2943 22.7691 57.56 22.283 56.933 21.6406C56.3145 20.9896 55.8335 20.1953 55.49 19.2578C55.155 18.3203 54.9875 17.2439 54.9875 16.0286C54.9875 14.4141 55.2709 13.0469 55.8378 11.9271C56.4047 10.8073 57.2121 9.9566 58.26 9.375C59.3079 8.7934 60.5576 8.5026 62.0092 8.5026C63.3577 8.5026 64.5516 8.7934 65.5908 9.375C66.6387 9.9566 67.459 10.8073 68.0516 11.9271C68.6529 13.0469 68.9535 14.4141 68.9535 16.0286ZM58.9944 16.0286C58.9944 16.9835 59.0974 17.7865 59.3036 18.4375C59.5097 19.0885 59.8318 19.579 60.2698 19.9089C60.7079 20.2387 61.2791 20.4036 61.9834 20.4036C62.6791 20.4036 63.2417 20.2387 63.6712 19.9089C64.1092 19.579 64.427 19.0885 64.6246 18.4375C64.8307 17.7865 64.9338 16.9835 64.9338 16.0286C64.9338 15.0651 64.8307 14.2665 64.6246 13.6328C64.427 12.9905 64.1092 12.5087 63.6712 12.1875C63.2331 11.8663 62.6619 11.7057 61.9576 11.7057C60.9183 11.7057 60.1625 12.066 59.6901 12.7865C59.2263 13.5069 58.9944 14.5877 58.9944 16.0286Z" fill="#780096"/>
<path d="M80.1624 11.7578H76.7611V23.3333H72.8315V11.7578H70.6671V9.84375L72.8315 8.77604V7.70833C72.8315 6.46701 73.0377 5.50347 73.4499 4.81771C73.8708 4.12326 74.4592 3.63715 75.215 3.35938C75.9795 3.07292 76.8813 2.92969 77.9206 2.92969C78.6851 2.92969 79.3808 2.99479 80.0078 3.125C80.6348 3.24653 81.1459 3.38542 81.541 3.54167L80.536 6.45833C80.2354 6.36285 79.909 6.27604 79.5569 6.19792C79.2047 6.11979 78.801 6.08073 78.3458 6.08073C77.7961 6.08073 77.3924 6.25 77.1347 6.58854C76.8856 6.9184 76.7611 7.34375 76.7611 7.86458V8.77604H80.1624V11.7578ZM90.3792 11.7578H86.9779V23.3333H83.0484V11.7578H80.8839V9.84375L83.0484 8.77604V7.70833C83.0484 6.46701 83.2545 5.50347 83.6668 4.81771C84.0877 4.12326 84.676 3.63715 85.4319 3.35938C86.1963 3.07292 87.0982 2.92969 88.1374 2.92969C88.9019 2.92969 89.5976 2.99479 90.2246 3.125C90.8516 3.24653 91.3627 3.38542 91.7578 3.54167L90.7529 6.45833C90.4522 6.36285 90.1258 6.27604 89.7737 6.19792C89.4215 6.11979 89.0178 6.08073 88.5626 6.08073C88.0129 6.08073 87.6092 6.25 87.3515 6.58854C87.1025 6.9184 86.9779 7.34375 86.9779 7.86458V8.77604H90.3792V11.7578Z" fill="#780096"/>
<defs>
<clipPath id="clip0_4101_112">
<rect width="28.0351" height="21.6667" fill="white" transform="translate(1.64893 1.66675)"/>
</clipPath>
</defs>
</svg>
